<?xml version="1.0" standalone="no"?>
<!DOCTYPE svg PUBLIC "-//W3C//DTD SVG 20010904//EN"
 "http://www.w3.org/TR/2001/REC-SVG-20010904/DTD/svg10.dtd">
<svg version="1.0" xmlns="http://www.w3.org/2000/svg"
 width="2134.000000pt" height="2134.000000pt" viewBox="0 0 2134.000000 2134.000000"
 preserveAspectRatio="xMidYMid meet">

<g transform="translate(0.000000,2134.000000) scale(0.100000,-0.100000)"
fill="#000000" stroke="none">
<path d="M8925 18164 c-33 -2 -127 -8 -210 -14 -2324 -160 -4116 -1131 -5297
-2870 -641 -944 -1104 -2158 -1292 -3390 -67 -436 -60 2 -64 -4573 -2 -3323 0
-4138 10 -4142 7 -3 1580 -4 3496 -3 l3483 3 -353 331 c-1431 1341 -2412 2342
-2667 2719 -240 356 -284 1006 -206 2995 41 1030 70 1584 96 1813 109 978 474
1792 1084 2416 490 502 1115 859 1796 1026 371 91 663 111 1084 74 1166 -101
2122 -569 2707 -1324 478 -615 718 -1424 718 -2415 0 -362 -23 -607 -85 -916
-118 -583 -366 -1103 -736 -1544 -477 -568 -1172 -1013 -2009 -1287 -262 -85
-766 -203 -870 -203 -16 0 -31 -4 -34 -9 -3 -5 870 -835 1941 -1845 l1946
-1836 2905 0 2905 0 -19 21 c-10 12 -755 807 -1655 1767 l-1636 1745 67 106
c950 1493 1285 3491 904 5396 -392 1961 -1472 3630 -3035 4688 -976 661 -2135
1076 -3409 1221 -353 40 -504 48 -1005 51 -275 1 -527 1 -560 -1z"/>
</g>
</svg>
