<svg xmlns="http://www.w3.org/2000/svg" version="1.1" xmlns:xlink="http://www.w3.org/1999/xlink" xmlns:svgjs="http://svgjs.dev/svgjs" viewBox="0 0 640 800"><defs><linearGradient x1="50%" y1="0%" x2="50%" y2="100%" id="ccchaos-grad"><stop stop-color="hsl(206, 75%, 49%)" stop-opacity="1" offset="0%"></stop><stop stop-color="hsl(331, 90%, 56%)" stop-opacity="1" offset="100%"></stop></linearGradient></defs><g stroke-width="2" stroke="url(#ccchaos-grad)" fill="none" stroke-linecap="round"><path d="M301.7 118.99C311.14 116.47 320.6 114.41 330.07 112.84 339.56 111.35 349.07 110.51 358.61 110.35 368.2 110.46 377.85 111.34 387.56 113 397.35 115.03 407.25 117.87 417.23 121.48 427.35 125.47 437.58 130.21 447.92 135.63 458.38 141.36 468.95 147.7 479.58 154.58 490.3 161.67 501.02 169.21 511.66 177.13 522.25 185.14 532.65 193.45 542.73 202 552.55 210.54 561.87 219.28 570.53 228.15 578.68 236.95 585.96 245.87 592.24 254.88 597.77 263.79 602.12 272.8 605.21 281.88 607.45 290.86 608.39 299.94 608.02 309.11 606.95 318.2 604.73 327.42 601.49 336.75 597.95 346.02 593.74 355.45 589.07 365.02 584.71 374.57 580.35 384.29 576.21 394.17 573.02 404.05 570.44 414.11 568.62 424.35 568.14 434.58 568.53 444.74 569.72 454.81 572.09 464.87 574.99 474.81 578.23 484.6 582.15 494.35 585.99 503.91 589.53 513.22 593.13 522.46 596.03 531.4 598.08 539.97 599.67 548.4 600.14 556.4 599.44 563.9 598.02 571.2 595.35 577.93 591.48 584.04 586.86 589.89 581.13 595.08 574.4 599.57 567.06 603.8 558.89 607.33 550.03 610.17 540.8 612.83 531.05 614.88 520.93 616.37 510.65 617.88 500.13 618.99 489.49 619.79 478.82 620.89 468.12 621.92 457.45 622.99 446.84 624.67 436.29 626.62 425.83 628.95 415.47 632.13 405.2 635.83 395.03 640.07 384.95 645.23 374.95 650.91 365.04 657.04 355.19 663.87 345.4 670.91 335.69 677.98 326.01 685.27 316.37 692.2 306.81 698.49 297.25 704.37 287.97 709.06 278.98 712.43 269.97 714.92 261.25 715.88 252.81 715.31 244.36 713.7 236.19 710.6 228.32 706.1 220.42 700.72 212.8 694.15 205.49 686.59 198.13 678.48 191.04 669.66 184.24 660.32 177.36 650.82 170.74 641.06 164.37 631.18 157.89 621.48 151.62 611.83 145.56 602.32 139.35 593.17 133.31 584.23 127.45 575.52 121.39 567.22 115.49 559.14 109.74 551.23 103.78 543.7 97.97 536.28 92.34 528.92 86.52 521.85 80.89 514.74 75.49 507.57 69.96 500.57 64.71 493.42 59.78 486.07 54.82 478.82 50.24 471.31 46.1 463.54 42.03 455.79 38.46 447.74 35.46 439.37 32.62 431.01 30.4 422.32 28.84 413.3 27.51 404.28 26.87 394.93 26.96 385.27 27.3 375.62 28.35 365.9 30.07 356.15 31.98 346.43 34.51 336.69 37.6 327 40.79 317.35 44.48 307.77 48.6 298.31 52.73 288.91 57.22 279.68 62.03 270.65 66.74 261.72 71.72 253.05 76.92 244.68 81.94 236.45 87.16 228.57 92.54 221.1 97.71 213.79 103.04 206.93 108.53 200.54 113.81 194.35 119.27 188.65 124.9 183.48 130.35 178.49 136.02 174.02 141.9 170.07 147.66 166.23 153.67 162.88 159.94 160 166.13 157.12 172.62 154.64 179.39 152.51 186.12 150.25 193.16 148.24 200.5 146.47 207.82 144.41 215.45 142.48 223.36 140.66 231.27 138.44 239.47 136.27 247.93 134.14 256.39 131.6 265.11 129.1 274.08 126.69 283.04 123.93 292.25 121.34 301.69 118.99" stroke-dasharray="10 8" transform="rotate(0, 320, 400)" opacity="0.48"></path><path d="M304.86 130.13C314.01 127.65 323.21 125.59 332.45 124.02 341.71 122.5 351.03 121.6 360.4 121.34 369.81 121.32 379.31 122.03 388.87 123.48 398.51 125.27 408.26 127.83 418.09 131.13 428.01 134.78 438.04 139.16 448.14 144.19 458.32 149.54 468.56 155.49 478.81 161.98 489.08 168.69 499.29 175.86 509.36 183.41 519.33 191.09 529.02 199.09 538.34 207.34 547.36 215.62 555.84 224.11 563.63 232.76 570.91 241.38 577.34 250.13 582.77 258.97 587.52 267.75 591.17 276.63 593.63 285.58 595.34 294.45 595.87 303.41 595.23 312.46 593.99 321.43 591.74 330.51 588.6 339.68 585.24 348.81 581.3 358.05 576.96 367.41 572.97 376.75 568.97 386.22 565.18 395.81 562.27 405.4 559.9 415.13 558.2 424.98 557.72 434.83 558.01 444.56 559.01 454.16 561.09 463.74 563.65 473.17 566.53 482.4 570.07 491.59 573.55 500.56 576.8 509.24 580.16 517.84 582.92 526.12 584.95 534 586.63 541.76 587.32 549.08 586.97 555.9 586.01 562.54 583.92 568.63 580.72 574.12 576.85 579.41 571.92 584.07 566.04 588.09 559.58 591.93 552.3 595.14 544.31 597.74 535.93 600.24 527.01 602.22 517.65 603.74 508.09 605.33 498.24 606.62 488.19 607.68 478.08 609.07 467.87 610.44 457.63 611.89 447.42 613.94 437.21 616.26 427.07 618.93 416.98 622.4 406.97 626.32 397.04 630.72 387.18 635.95 377.4 641.61 367.72 647.64 358.08 654.28 348.51 661.07 339.05 667.84 329.6 674.79 320.22 681.37 310.94 687.34 301.65 692.94 292.65 697.43 283.95 700.7 275.24 703.18 266.81 704.24 258.67 703.9 250.51 702.6 242.63 699.91 235.04 695.91 227.41 691.08 220.05 685.12 212.97 678.18 205.84 670.7 198.96 662.48 192.34 653.7 185.64 644.72 179.17 635.41 172.92 625.91 166.55 616.51 160.38 607.07 154.4 597.71 148.26 588.62 142.28 579.68 136.46 570.91 130.45 562.49 124.58 554.25 118.86 546.17 112.95 538.43 107.19 530.8 101.59 523.25 95.83 515.97 90.27 508.69 84.92 501.38 79.48 494.25 74.3 487.02 69.45 479.65 64.58 472.39 60.09 464.93 56.02 457.25 52.05 449.62 48.56 441.74 45.62 433.6 42.86 425.47 40.69 417.06 39.17 408.37 37.89 399.69 37.28 390.72 37.38 381.49 37.73 372.26 38.77 363 40.46 353.74 42.35 344.49 44.84 335.26 47.88 326.11 51.03 316.98 54.66 307.95 58.72 299.06 62.79 290.23 67.22 281.58 71.97 273.15 76.63 264.81 81.56 256.74 86.7 248.98 91.68 241.35 96.86 234.06 102.2 227.17 107.33 220.44 112.63 214.12 118.07 208.27 123.31 202.58 128.71 197.36 134.27 192.63 139.65 188.04 145.23 183.93 150.99 180.3 156.62 176.74 162.48 173.62 168.58 170.92 174.58 168.19 180.84 165.81 187.37 163.75 193.85 161.53 200.6 159.54 207.64 157.74 214.65 155.66 221.95 153.7 229.53 151.83 237.09 149.58 244.94 147.38 253.06 145.22 261.17 142.67 269.54 140.17 278.18 137.76 286.81 135.03 295.7 132.46 304.85 130.13" stroke-dasharray="5 9" transform="rotate(4.04, 320, 400)" opacity="0.18"></path><path d="M308.69 141.28C317.56 138.82 326.5 136.78 335.5 135.2 344.52 133.67 353.62 132.71 362.79 132.37 371.99 132.23 381.29 132.78 390.65 134.03 400.08 135.59 409.6 137.87 419.2 140.86 428.86 144.19 438.59 148.2 448.36 152.86 458.17 157.82 468 163.36 477.77 169.44 487.52 175.75 497.15 182.52 506.57 189.69 515.85 197 524.81 204.64 533.33 212.56 541.55 220.53 549.19 228.73 556.12 237.11 562.57 245.49 568.17 254.01 572.83 262.64 576.86 271.23 579.86 279.93 581.77 288.7 583.03 297.41 583.22 306.22 582.36 315.09 581.02 323.91 578.78 332.81 575.75 341.79 572.59 350.73 568.93 359.77 564.93 368.89 561.28 377.99 557.64 387.19 554.18 396.47 551.54 405.75 549.37 415.13 547.78 424.58 547.31 434.03 547.5 443.32 548.33 452.44 550.14 461.55 552.38 470.46 554.92 479.14 558.08 487.78 561.21 496.16 564.16 504.23 567.26 512.22 569.86 519.87 571.83 527.12 573.54 534.25 574.4 540.95 574.33 547.15 572.95 555.96 564.25 570.61 557.07 576.38 551.45 579.9 545.01 582.88 537.88 585.33 530.35 587.75 522.25 589.73 513.68 591.33 504.89 593.06 495.75 594.56 486.36 595.9 476.87 597.59 467.22 599.3 457.49 601.12 447.75 603.51 437.97 606.16 428.22 609.14 418.49 612.84 408.8 616.95 399.18 621.47 389.6 626.72 380.09 632.34 370.67 638.24 361.29 644.68 351.99 651.21 342.78 657.68 333.59 664.29 324.48 670.54 315.46 676.2 306.45 681.52 297.73 685.81 289.3 688.98 280.86 691.42 272.7 692.58 264.83 692.43 256.93 691.42 249.3 689.12 241.95 685.59 234.55 681.29 227.42 675.9 220.54 669.58 213.6 662.71 206.89 655.1 200.43 646.91 193.86 638.47 187.51 629.66 181.37 620.6 175.09 611.55 169 602.41 163.07 593.27 156.99 584.33 151.06 575.47 145.27 566.73 139.31 558.28 133.48 549.96 127.8 541.79 121.94 533.9 116.22 526.12 110.68 518.44 104.99 510.99 99.49 503.57 94.22 496.16 88.86 488.92 83.78 481.61 79.01 474.22 74.25 466.94 69.86 459.51 65.89 451.92 62.01 444.39 58.62 436.65 55.76 428.71 53.08 420.79 50.98 412.64 49.5 404.27 48.27 395.89 47.69 387.29 47.79 378.47 48.15 369.65 49.18 360.83 50.84 352.05 52.7 343.28 55.14 334.55 58.12 325.92 61.21 317.32 64.78 308.83 68.76 300.51 72.76 292.24 77.13 284.16 81.8 276.32 86.4 268.57 91.26 261.08 96.34 253.9 101.28 246.84 106.41 240.13 111.7 233.8 116.81 227.6 122.07 221.8 127.46 216.45 132.67 211.22 138.03 206.43 143.53 202.1 148.85 197.87 154.35 194.08 160.03 190.72 165.56 187.41 171.3 184.48 177.25 181.93 183.1 179.32 189.18 177.02 195.51 175 201.77 172.81 208.29 170.81 215.07 168.99 221.81 166.88 228.83 164.88 236.11 162.96 243.37 160.68 250.91 158.45 258.72 156.26 266.51 153.71 274.57 151.21 282.9 148.81 291.22 146.11 299.82 143.58 308.68 141.28" stroke-dasharray="1 1" transform="rotate(8.08, 320, 400)" opacity="0.56"></path><path d="M313.03 152.42C321.62 150.01 330.29 147.99 339.04 146.41 347.8 144.86 356.65 143.86 365.57 143.43 374.53 143.19 383.57 143.6 392.68 144.65 401.84 145.99 411.07 148.01 420.35 150.7 429.67 153.71 439.03 157.36 448.39 161.64 457.75 166.2 467.08 171.34 476.3 177 485.47 182.89 494.46 189.24 503.19 196 511.74 202.91 519.94 210.17 527.66 217.71 535.07 225.34 541.88 233.2 547.99 241.26 553.65 249.34 558.49 257.59 562.43 265.95 565.81 274.3 568.24 282.76 569.66 291.31 570.54 299.82 570.46 308.41 569.44 317.06 568.03 325.68 565.84 334.37 562.96 343.12 560.01 351.84 556.64 360.63 552.97 369.48 549.66 378.32 546.35 387.22 543.21 396.17 540.82 405.12 538.84 414.12 537.37 423.16 536.9 432.2 537.01 441.05 537.67 449.68 539.23 458.31 541.18 466.71 543.38 474.85 546.18 482.95 548.97 490.77 551.61 498.26 554.45 505.68 556.86 512.75 558.73 519.41 560.91 529.04 560.67 545.81 557.98 552.86 553.62 559.21 539.84 569.24 530.7 573.03 524.01 575.42 516.73 577.46 508.96 579.2 500.94 581.1 492.54 582.84 483.86 584.46 475.04 586.46 466.01 588.5 456.85 590.66 447.65 593.36 438.37 596.31 429.06 599.55 419.76 603.46 410.47 607.71 401.21 612.32 391.98 617.56 382.8 623.1 373.69 628.86 364.61 635.08 355.59 641.34 346.67 647.51 337.76 653.78 328.93 659.7 320.19 665.06 311.45 670.1 303 674.2 294.84 677.25 286.66 679.66 278.76 680.89 271.13 680.91 263.47 680.17 256.06 678.22 248.92 675.13 241.73 671.33 234.78 666.5 228.07 660.77 221.29 654.51 214.73 647.51 208.39 639.92 201.95 632.05 195.69 623.76 189.63 615.18 183.44 606.55 177.4 597.77 171.53 588.93 165.5 580.21 159.61 571.52 153.86 562.9 147.95 554.5 142.16 546.19 136.51 538 130.71 530.05 125.06 522.19 119.57 514.43 113.96 506.87 108.55 499.36 103.37 491.88 98.12 484.55 93.14 477.2 88.48 469.8 83.83 462.5 79.55 455.11 75.69 447.6 71.93 440.15 68.64 432.56 65.87 424.81 63.27 417.08 61.25 409.17 59.83 401.1 58.64 393.02 58.09 384.77 58.21 376.34 58.57 367.92 59.59 359.53 61.21 351.21 63.03 342.9 65.42 334.67 68.32 326.55 71.34 318.46 74.83 310.51 78.72 302.74 82.65 295.02 86.93 287.5 91.52 280.22 96.05 273.02 100.84 266.1 105.85 259.49 110.74 252.97 115.81 246.79 121.05 240.98 126.12 235.28 131.34 229.96 136.69 225.05 141.86 220.25 147.18 215.85 152.63 211.87 157.92 207.96 163.36 204.44 168.96 201.32 174.41 198.21 180.06 195.44 185.89 193.01 191.61 190.5 197.55 188.25 203.71 186.25 209.78 184.07 216.11 182.06 222.67 180.2 229.18 178.06 235.96 176.02 242.99 174.05 249.98 171.74 257.24 169.48 264.77 167.27 272.27 164.72 280.05 162.24 288.09 159.85 296.12 157.19 304.43 154.69 313.02 152.42" stroke-dasharray="7 9" transform="rotate(12.12, 320, 400)" opacity="0.42"></path><path d="M317.68 163.56C325.99 161.2 334.38 159.21 342.85 157.63 351.34 156.08 359.91 155.05 368.55 154.54 377.21 154.21 385.95 154.47 394.75 155.35 403.57 156.48 412.45 158.25 421.34 160.65 430.26 163.34 439.17 166.65 448.05 170.54 456.9 174.72 465.67 179.44 474.28 184.68 482.81 190.14 491.12 196.06 499.13 202.38 506.94 208.87 514.36 215.71 521.29 222.85 527.91 230.08 533.93 237.57 539.26 245.27 544.17 253.01 548.31 260.93 551.6 268.98 554.4 277.04 556.33 285.21 557.35 293.47 557.91 301.72 557.61 310.06 556.49 318.44 555.06 326.82 552.95 335.25 550.24 343.72 547.52 352.19 544.42 360.7 541.08 369.24 538.09 377.78 535.11 386.36 532.27 394.95 530.12 403.55 528.32 412.17 526.95 420.78 526.49 429.4 526.53 437.8 527.04 445.96 528.37 454.11 530.03 462.01 531.93 469.63 534.38 477.22 536.84 484.51 539.18 491.45 541.74 498.35 543.95 504.88 545.7 511.01 547.84 519.88 548.18 535.29 546.09 541.78 542.55 547.68 530.8 557.19 522.81 560.93 516.91 563.37 510.42 565.51 503.44 567.41 496.2 569.52 488.56 571.5 480.59 573.41 472.47 575.7 464.11 578.05 455.57 580.52 446.96 583.5 438.23 586.71 429.43 590.18 420.62 594.24 411.78 598.6 402.94 603.24 394.11 608.45 385.3 613.89 376.54 619.48 367.8 625.47 359.11 631.46 350.5 637.32 341.9 643.26 333.36 648.85 324.91 653.91 316.46 658.69 308.28 662.58 300.37 665.52 292.45 667.89 284.78 669.17 277.38 669.35 269.94 668.84 262.74 667.22 255.79 664.54 248.78 661.21 242 656.91 235.44 651.75 228.8 646.08 222.37 639.69 216.13 632.7 209.79 625.41 203.62 617.68 197.62 609.61 191.5 601.45 185.53 593.09 179.7 584.61 173.73 576.2 167.88 567.75 162.17 559.33 156.32 551.06 150.58 542.85 144.99 534.73 139.26 526.79 133.68 518.93 128.27 511.16 122.76 503.56 117.45 496.01 112.37 488.5 107.24 481.14 102.38 473.77 97.84 466.38 93.33 459.1 89.18 451.75 85.43 444.34 81.8 436.98 78.62 429.52 75.95 421.95 73.46 414.41 71.51 406.74 70.15 398.95 69.02 391.16 68.5 383.24 68.63 375.19 68.99 367.15 69.98 359.18 71.56 351.31 73.34 343.44 75.66 335.68 78.48 328.07 81.43 320.47 84.82 313.03 88.62 305.79 92.45 298.59 96.64 291.6 101.13 284.87 105.57 278.2 110.28 271.8 115.2 265.72 120.02 259.7 125.03 254.02 130.21 248.69 135.23 243.44 140.4 238.56 145.71 234.06 150.85 229.63 156.13 225.57 161.53 221.9 166.78 218.26 172.17 214.98 177.7 212.06 183.1 209.11 188.66 206.47 194.39 204.13 200.02 201.68 205.83 199.47 211.85 197.48 217.78 195.29 223.94 193.26 230.31 191.36 236.63 189.19 243.19 187.1 250 185.09 256.76 182.76 263.77 180.47 271.04 178.25 278.29 175.71 285.8 173.24 293.57 170.87 301.33 168.25 309.36 165.8 317.67 163.57" stroke-dasharray="8 8" transform="rotate(16.16, 320, 400)" opacity="0.14"></path><path d="M322.43 174.71C330.45 172.39 338.55 170.44 346.72 168.88 354.91 167.33 363.17 166.26 371.48 165.7 379.81 165.27 388.2 165.41 396.63 166.12 405.06 167.05 413.53 168.59 421.98 170.71 430.43 173.09 438.84 176.07 447.17 179.59 455.46 183.38 463.62 187.7 471.59 192.5 479.45 197.53 487.06 203.01 494.33 208.89 501.4 214.93 508.05 221.33 514.21 228.03 520.06 234.85 525.33 241.93 529.94 249.22 534.17 256.58 537.66 264.12 540.38 271.81 542.68 279.52 544.17 287.37 544.86 295.3 545.16 303.24 544.7 311.26 543.52 319.34 542.11 327.41 540.11 335.55 537.59 343.71 535.1 351.87 532.29 360.06 529.27 368.27 526.58 376.48 523.91 384.71 521.36 392.93 519.43 401.15 517.8 409.36 516.54 417.55 516.08 425.73 516.05 433.68 516.43 441.38 517.54 449.06 518.95 456.48 520.55 463.61 522.68 470.71 524.82 477.49 526.86 483.94 530.14 493.37 534.78 510.26 535.66 517.66 535.51 524.54 531.07 536.15 526.73 540.93 521.14 545.35 506.18 552.77 497.09 556.01 490.62 558.32 483.73 560.55 476.48 562.76 469.08 565.31 461.4 567.94 453.51 570.7 445.53 573.92 437.39 577.35 429.15 580.99 420.87 585.17 412.52 589.59 404.15 594.24 395.77 599.38 387.38 604.69 379.01 610.11 370.66 615.85 362.33 621.56 354.05 627.11 345.78 632.73 337.56 638 329.41 642.77 321.26 647.28 313.35 650.98 305.7 653.79 298.03 656.11 290.6 657.43 283.41 657.74 276.19 657.44 269.19 656.12 262.4 653.83 255.57 650.93 248.95 647.14 242.51 642.52 236.01 637.42 229.69 631.63 223.54 625.23 217.31 618.54 211.22 611.38 205.29 603.85 199.24 596.2 193.33 588.31 187.55 580.25 181.64 572.2 175.85 564.07 170.19 555.92 164.41 547.87 158.74 539.84 153.22 531.86 147.58 524.02 142.09 516.24 136.78 508.52 131.38 500.96 126.19 493.43 121.22 485.95 116.24 478.6 111.52 471.26 107.11 463.93 102.74 456.68 98.73 449.41 95.12 442.11 91.63 434.85 88.57 427.54 86.01 420.16 83.62 412.81 81.76 405.37 80.47 397.85 79.4 390.34 78.91 382.74 79.04 375.07 79.41 367.39 80.37 359.82 81.9 352.38 83.62 344.94 85.87 337.64 88.6 330.5 91.46 323.37 94.76 316.43 98.44 309.69 102.17 302.98 106.25 296.5 110.62 290.27 114.97 284.09 119.58 278.19 124.41 272.58 129.15 267.04 134.08 261.81 139.17 256.91 144.14 252.07 149.26 247.57 154.5 243.43 159.6 239.32 164.84 235.57 170.19 232.15 175.4 228.75 180.74 225.67 186.21 222.9 191.55 220.08 197.05 217.54 202.7 215.26 208.23 212.86 213.95 210.66 219.84 208.66 225.65 206.46 231.66 204.4 237.88 202.46 244.03 200.26 250.4 198.13 257 196.08 263.55 193.73 270.35 191.43 277.38 189.19 284.38 186.67 291.64 184.22 299.15 181.88 306.64 179.31 314.4 176.9 322.42 174.71" stroke-dasharray="6 10" transform="rotate(20.200000000000003, 320, 400)" opacity="0.18"></path><path d="M327.07 185.85C334.79 183.59 342.59 181.68 350.43 180.13 358.29 178.6 366.21 177.51 374.16 176.89 382.12 176.39 390.12 176.42 398.12 176.97 406.12 177.72 414.12 179.03 422.08 180.89 430.02 182.98 437.88 185.63 445.63 188.8 453.32 192.2 460.84 196.12 468.14 200.5 475.32 205.1 482.21 210.12 488.75 215.54 495.08 221.13 501 227.07 506.42 233.32 511.55 239.69 516.13 246.32 520.07 253.18 523.68 260.12 526.61 267.25 528.82 274.53 530.68 281.86 531.81 289.32 532.23 296.88 532.33 304.46 531.77 312.13 530.57 319.85 529.22 327.58 527.34 335.37 525.03 343.18 522.77 351 520.24 358.84 517.53 366.68 515.14 374.53 512.76 382.38 510.47 390.2 508.75 398.03 507.28 405.84 506.12 413.59 505.67 421.33 505.59 428.84 505.84 436.08 506.76 443.31 507.92 450.27 509.26 456.93 511.07 463.57 512.91 469.9 514.66 475.9 517.54 484.67 521.76 500.38 522.66 507.27 522.73 513.72 519.25 524.76 515.64 529.42 510.91 533.82 497.95 541.53 489.93 545.04 484.2 547.57 478.03 550.04 471.5 552.51 464.81 555.31 457.82 558.2 450.59 561.19 443.26 564.61 435.74 568.21 428.07 572 420.37 576.24 412.55 580.69 404.68 585.31 396.79 590.35 388.85 595.51 380.91 600.73 372.97 606.22 365.03 611.64 357.12 616.89 349.21 622.19 341.33 627.14 333.49 631.62 325.65 635.87 318.03 639.37 310.64 642.07 303.23 644.32 296.04 645.66 289.06 646.09 282.05 645.98 275.24 644.93 268.62 642.98 261.96 640.5 255.48 637.17 249.18 633.07 242.81 628.53 236.6 623.31 230.55 617.51 224.41 611.4 218.41 604.83 212.54 597.87 206.58 590.75 200.74 583.36 195.02 575.77 189.19 568.15 183.48 560.4 177.89 552.59 172.19 544.83 166.61 537.06 161.18 529.29 155.65 521.64 150.27 514.01 145.07 506.42 139.82 498.96 134.76 491.53 129.94 484.14 125.11 476.86 120.55 469.6 116.29 462.36 112.09 455.2 108.23 448.04 104.77 440.87 101.42 433.75 98.5 426.59 96.05 419.41 93.78 412.26 92.01 405.06 90.79 397.82 89.77 390.58 89.32 383.3 89.46 375.98 89.82 368.66 90.76 361.47 92.23 354.44 93.9 347.41 96.06 340.54 98.7 333.85 101.46 327.17 104.64 320.68 108.2 314.41 111.81 308.16 115.77 302.15 120.01 296.39 124.25 290.66 128.74 285.21 133.45 280.04 138.1 274.91 142.93 270.09 147.93 265.58 152.83 261.1 157.87 256.94 163.05 253.1 168.09 249.28 173.27 245.77 178.56 242.58 183.72 239.37 189.01 236.44 194.42 233.8 199.71 231.09 205.14 228.61 210.7 226.37 216.17 224 221.79 221.81 227.57 219.79 233.27 217.57 239.15 215.47 245.22 213.49 251.22 211.25 257.43 209.09 263.83 207.01 270.2 204.64 276.79 202.33 283.59 200.1 290.37 197.59 297.38 195.17 304.63 192.87 311.86 190.35 319.34 188 327.06 185.86" stroke-dasharray="10 1" transform="rotate(24.24, 320, 400)" opacity="0.16"></path><path d="M331.4 197C338.81 194.8 346.27 192.93 353.77 191.41 361.27 189.9 368.81 188.8 376.36 188.13 383.92 187.57 391.49 187.49 399.03 187.9 406.56 188.48 414.06 189.58 421.48 191.19 428.88 193.01 436.16 195.34 443.3 198.17 450.36 201.21 457.23 204.73 463.85 208.69 470.35 212.86 476.54 217.44 482.36 222.4 488 227.52 493.21 232.99 497.93 238.77 502.4 244.67 506.34 250.84 509.69 257.23 512.74 263.72 515.17 270.4 516.95 277.25 518.44 284.15 519.28 291.19 519.48 298.34 519.45 305.51 518.83 312.78 517.66 320.11 516.38 327.46 514.65 334.86 512.55 342.29 510.53 349.72 508.27 357.18 505.86 364.63 503.75 372.09 501.65 379.54 499.61 386.95 498.09 394.37 496.77 401.75 495.7 409.06 495.27 416.37 495.13 423.44 495.28 430.24 496.02 437.03 496.95 443.55 498.04 449.78 500.34 458.95 505.07 475.69 507.07 483.23 508.8 490.39 509.86 502.99 508.96 508.45 507.15 513.63 500.16 522.68 495.04 526.69 489.01 530.73 474.19 538.62 465.61 542.67 459.62 545.69 453.31 548.79 446.73 551.99 440.06 555.57 433.16 559.29 426.09 563.17 418.98 567.45 411.72 571.88 404.37 576.44 397 581.35 389.55 586.34 382.06 591.34 374.57 596.57 367.05 601.71 359.52 606.66 352 611.63 344.48 616.28 336.97 620.48 329.46 624.47 322.15 627.78 315.02 630.34 307.89 632.52 300.94 633.88 294.17 634.4 287.39 634.45 280.77 633.65 274.32 632.02 267.84 629.92 261.51 627.03 255.34 623.42 249.11 619.4 243.02 614.74 237.06 609.51 231.04 603.99 225.13 598 219.35 591.61 213.49 585.05 207.73 578.19 202.09 571.1 196.36 563.95 190.74 556.64 185.24 549.23 179.66 541.84 174.19 534.38 168.87 526.91 163.48 519.51 158.24 512.11 153.18 504.73 148.08 497.44 143.18 490.17 138.52 482.94 133.87 475.79 129.47 468.67 125.39 461.58 121.36 454.55 117.67 447.53 114.37 440.53 111.18 433.57 108.4 426.61 106.08 419.64 103.92 412.7 102.25 405.74 101.1 398.78 100.15 391.82 99.73 384.85 99.88 377.88 100.23 370.9 101.14 364.09 102.55 357.44 104.15 350.8 106.23 344.34 108.76 338.07 111.41 331.81 114.47 325.75 117.89 319.92 121.38 314.1 125.19 308.51 129.29 303.17 133.4 297.86 137.76 292.81 142.34 288.03 146.87 283.28 151.6 278.81 156.48 274.64 161.29 270.48 166.24 266.6 171.33 263.03 176.3 259.45 181.41 256.15 186.62 253.13 191.73 250.08 196.95 247.28 202.29 244.72 207.52 242.09 212.87 239.66 218.35 237.44 223.74 235.08 229.27 232.89 234.95 230.84 240.54 228.6 246.3 226.47 252.22 224.44 258.09 222.18 264.13 219.99 270.36 217.87 276.54 215.5 282.93 213.19 289.51 210.96 296.07 208.49 302.84 206.1 309.82 203.84 316.79 201.38 323.98 199.09 331.39 197" stroke-dasharray="9 6" transform="rotate(28.28, 320, 400)" opacity="0.51"></path><path d="M335.22 208.14C342.3 206.01 349.41 204.19 356.53 202.71 363.66 201.21 370.8 200.11 377.92 199.41 385.05 198.79 392.15 198.63 399.2 198.91 406.24 199.34 413.21 200.24 420.07 201.62 426.89 203.18 433.58 205.22 440.1 207.71 446.53 210.4 452.75 213.54 458.7 217.1 464.53 220.84 470.04 224.98 475.18 229.48 480.15 234.14 484.71 239.14 488.8 244.43 492.66 249.85 496.02 255.54 498.84 261.46 501.41 267.47 503.41 273.68 504.83 280.06 506.02 286.5 506.63 293.09 506.68 299.79 506.55 306.53 505.91 313.36 504.8 320.26 503.62 327.19 502.06 334.17 500.17 341.17 498.39 348.2 496.4 355.24 494.27 362.27 492.43 369.32 490.58 376.35 488.79 383.34 487.45 390.33 486.27 397.28 485.29 404.16 484.87 411.04 484.69 417.67 484.74 424.05 485.31 430.42 486.05 436.53 486.9 442.36 488.79 450.94 492.74 466.63 494.43 473.71 496.46 486.48 494.82 502.88 492.32 507.49 488.98 512.02 479.41 520.45 473.28 524.53 468.87 527.44 464.04 530.34 458.85 533.25 453.51 536.46 447.86 539.73 441.92 543.08 435.89 546.77 429.62 550.58 423.15 554.5 416.63 558.77 409.94 563.15 403.13 567.62 396.29 572.38 389.34 577.17 382.33 581.95 375.31 586.91 368.23 591.75 361.11 596.4 353.99 601.07 346.85 605.41 339.69 609.33 332.54 613.08 325.53 616.19 318.69 618.62 311.85 620.73 305.15 622.08 298.62 622.68 292.06 622.87 285.65 622.28 279.38 620.94 273.09 619.18 266.92 616.7 260.89 613.55 254.82 610.03 248.86 605.9 243.02 601.23 237.13 596.28 231.34 590.86 225.66 585.05 219.92 579.06 214.27 572.76 208.74 566.2 203.13 559.56 197.63 552.73 192.25 545.76 186.8 538.78 181.48 531.72 176.3 524.6 171.06 517.52 165.99 510.41 161.09 503.31 156.17 496.27 151.46 489.23 146.97 482.22 142.51 475.27 138.31 468.34 134.41 461.45 130.57 454.61 127.07 447.78 123.93 440.98 120.91 434.22 118.28 427.47 116.09 420.75 114.06 414.04 112.49 407.34 111.41 400.66 110.52 393.99 110.14 387.33 110.29 380.69 110.64 374.05 111.51 367.59 112.87 361.32 114.39 355.05 116.38 348.97 118.79 343.1 121.32 337.23 124.25 331.56 127.52 326.13 130.87 320.69 134.53 315.49 138.48 310.54 142.44 305.6 146.65 300.9 151.08 296.47 155.47 292.05 160.06 287.89 164.82 284 169.51 280.11 174.35 276.49 179.32 273.13 184.21 269.75 189.22 266.62 194.34 263.74 201.94 259.46 217.55 251.84 225.57 248.43 230.88 246.08 236.31 243.87 241.87 241.79 247.36 239.53 252.99 237.36 258.77 235.3 264.49 233.02 270.38 230.8 276.42 228.67 282.43 226.3 288.61 224 294.97 221.79 301.3 219.35 307.83 217.01 314.53 214.79 321.23 212.4 328.12 210.17 335.21 208.14" stroke-dasharray="10 1" transform="rotate(32.32, 320, 400)" opacity="0.79"></path><path d="M338.36 219.29C345.09 217.23 351.84 215.47 358.56 214.02 365.29 212.56 372 211.46 378.67 210.73 385.34 210.08 391.96 209.83 398.5 210 405.02 210.29 411.44 211.02 417.74 212.18 423.98 213.5 430.07 215.26 435.97 217.45 441.78 219.8 447.36 222.57 452.66 225.74 457.85 229.07 462.72 232.78 467.23 236.84 471.58 241.04 475.53 245.56 479.05 250.37 482.37 255.31 485.22 260.5 487.58 265.93 489.73 271.45 491.38 277.17 492.51 283.06 493.45 289.02 493.89 295.13 493.84 301.36 493.66 307.63 493.04 314 492.01 320.45 490.95 326.92 489.56 333.45 487.89 340.02 486.34 346.6 484.61 353.2 482.75 359.8 481.16 366.41 479.55 373 477.98 379.56 476.81 386.12 475.77 392.64 474.87 399.09 474.47 405.53 474.25 411.75 474.22 417.72 474.92 426.55 477.35 442.92 478.82 450.44 480.55 457.67 483.19 470.8 483.85 476.7 483.22 487.49 477.42 501.89 473.67 506.23 469.22 510.69 457.94 519.63 451.23 524.24 446.51 527.59 441.47 530.98 436.15 534.45 430.73 538.21 425.07 542.06 419.19 545.99 413.26 550.21 407.14 554.5 400.87 558.84 394.57 563.43 388.14 568.01 381.62 572.55 375.08 577.23 368.45 581.78 361.76 586.13 355.07 590.49 348.32 594.53 341.54 598.19 334.75 601.69 328.08 604.6 321.54 606.91 315 608.92 308.58 610.26 302.29 610.92 295.98 611.23 289.79 610.83 283.73 609.75 277.64 608.31 271.66 606.2 265.79 603.48 259.89 600.42 254.09 596.8 248.39 592.66 242.65 588.26 237 583.41 231.46 578.17 225.86 572.75 220.35 567.01 214.95 561 209.5 554.89 204.15 548.57 198.92 542.09 193.64 535.57 188.48 528.94 183.46 522.24 178.42 515.54 173.53 508.79 168.82 502.03 164.11 495.29 159.6 488.55 155.31 481.82 151.06 475.14 147.07 468.46 143.37 461.82 139.74 455.21 136.42 448.62 133.46 442.07 130.62 435.55 128.15 429.05 126.09 422.59 124.19 416.14 122.73 409.72 121.72 403.33 120.9 396.95 120.56 390.6 120.71 384.3 121.05 378 121.88 371.89 123.17 365.97 124.62 360.06 126.51 354.34 128.8 348.83 131.2 343.32 133.99 338.02 137.1 332.94 140.3 327.87 143.8 323.01 147.57 318.4 151.37 313.78 155.41 309.41 159.67 305.28 163.91 301.14 168.35 297.25 172.95 293.6 179.85 288.23 194.26 278.63 201.71 274.37 209.15 270.21 224.46 262.73 232.32 259.32 237.52 256.96 242.84 254.73 248.27 252.63 253.64 250.35 259.14 248.16 264.76 246.06 270.34 243.77 276.06 241.54 281.91 239.4 287.73 237.04 293.71 234.76 299.83 232.57 305.93 230.18 312.2 227.89 318.62 225.73 325.03 223.41 331.61 221.25 338.35 219.29" stroke-dasharray="7 9" transform="rotate(36.36, 320, 400)" opacity="0.41"></path><path d="M340.68 230.43C347.05 228.45 353.41 226.75 359.72 225.34 366.03 223.93 372.3 222.84 378.51 222.1 390.89 220.79 402.95 221.05 414.43 222.87 425.74 225.21 436.28 229.18 445.77 234.63 454.83 240.65 462.58 248.06 468.76 256.63 474.29 265.64 478.09 275.63 480.04 286.35 481.43 297.34 481.14 308.91 479.31 320.81 477.5 332.84 474.72 345.11 471.31 357.39 469.95 363.55 468.57 369.7 467.2 375.82 466.19 381.95 465.27 388.03 464.45 394.05 463.95 402.98 464.21 419.73 464.86 427.53 466.72 437.76 468.4 447.06 469.57 455.38 471.17 463.74 471.64 471.23 470.77 477.89 469.61 484.77 466.8 491.05 462.36 496.86 457.39 503.22 450.81 509.44 442.83 515.63 434.42 522.74 424.81 530.07 414.24 537.6 403.46 546.1 391.93 554.71 379.87 563.13 373.82 567.53 367.66 571.79 361.41 575.84 355.16 579.89 348.82 583.65 342.42 587.05 336.02 590.3 329.7 593.02 323.49 595.19 317.27 597.12 311.14 598.43 305.11 599.13 293.03 599.61 281.3 597.56 269.98 593.2 258.55 587.66 247.43 580.11 236.72 570.93 225.84 561.06 215.31 549.99 205.24 538.13 195.06 526.06 185.38 513.5 176.38 500.74 167.44 488.03 159.32 475.23 152.27 462.52 145.53 449.91 140.06 437.36 136.09 425 134.32 418.84 132.96 412.71 132.04 406.64 131.28 400.56 130.97 394.53 131.13 388.56 131.85 379.7 135.73 362.97 138.78 355.12 143.43 344.76 149.45 335.24 156.56 326.62 163.83 317.96 172 310.18 180.86 303.33 189.61 296.36 198.94 290.23 208.71 284.92 218.24 279.33 228.21 274.4 238.54 270.07 248.64 265.22 259.18 260.77 270.12 256.71 280.91 251.94 292.2 247.44 303.96 243.31 309.82 240.98 315.81 238.75 321.93 236.65 328.04 234.41 334.29 232.33 340.67 230.43" stroke-dasharray="11 5" transform="rotate(40.400000000000006, 320, 400)" opacity="0.80"></path><path d="M342.08 241.57C354.07 237.74 365.87 235.02 377.33 233.5 388.76 232.14 399.76 232.21 410.13 233.69 420.32 235.61 429.71 239.01 438.05 243.78 446.02 249.04 452.73 255.6 457.99 263.25 462.73 271.3 465.91 280.3 467.47 290.03 468.63 300.01 468.34 310.57 466.72 321.5 465.21 332.55 462.86 343.87 459.94 355.23 457.91 366.65 455.87 378.06 454.04 389.26 453.68 400.47 453.68 410.92 453.94 420.53 455.37 430.14 456.6 438.94 457.39 446.91 458.63 454.93 458.91 462.23 458.05 468.84 457.05 475.7 454.61 482.08 450.74 488.08 446.48 494.61 440.76 501.02 433.73 507.41 426.36 514.58 417.82 521.91 408.32 529.33 398.64 537.55 388.16 545.76 377.07 553.7 365.94 561.99 354.3 569.54 342.3 575.9 330.31 581.78 318.53 585.61 307.06 587.32 295.57 587.99 284.35 586.4 273.46 582.72 262.49 578.01 251.8 571.44 241.47 563.33 231.02 554.56 220.91 544.6 211.26 533.82 201.55 522.78 192.33 511.18 183.8 499.3 175.36 487.41 167.73 475.37 161.12 463.36 154.84 451.42 149.75 439.52 146.08 427.8 142.96 416.12 141.39 404.57 141.54 393.3 142.34 382.02 144.81 371.51 148.74 361.81 153.11 352.08 158.77 343.15 165.48 335.07 172.37 326.92 180.13 319.59 188.58 313.08 196.97 306.44 205.94 300.54 215.35 295.37 224.58 289.9 234.23 285.01 244.22 280.66 254.03 275.81 264.24 271.35 274.78 267.25 285.21 262.52 296.05 258.07 307.28 254 318.45 249.33 330.08 245.12 342.07 241.58" stroke-dasharray="2 2" transform="rotate(44.44, 320, 400)" opacity="0.65"></path><path d="M342.49 252.72C353.69 249.06 364.62 246.46 375.12 244.95 385.59 243.55 395.56 243.46 404.85 244.64 413.99 246.17 422.3 249.06 429.58 253.19 436.56 257.74 442.36 263.49 446.83 270.26 450.9 277.38 453.6 285.41 454.87 294.16 455.87 303.13 455.63 312.69 454.26 322.64 453.05 332.7 451.11 343.05 448.65 353.5 446.99 364 445.26 374.52 443.62 384.92 443.25 395.31 443.09 405.05 443.11 414.07 444.13 423.1 444.96 431.44 445.39 439.09 446.27 446.81 446.34 453.94 445.44 460.52 444.51 467.33 442.34 473.78 438.92 479.92 435.23 486.53 430.24 493.06 424.05 499.55 417.59 506.7 410.03 513.93 401.53 521.16 392.87 529.04 383.4 536.82 373.27 544.25 363.1 551.94 352.36 558.91 341.19 564.76 330.02 570.19 318.96 573.79 308.13 575.48 297.28 576.31 286.62 575.12 276.23 572.05 265.79 568.1 255.59 562.44 245.72 555.35 235.78 547.64 226.16 538.78 216.99 529.09 207.8 519.1 199.12 508.52 191.1 497.59 183.2 486.61 176.08 475.41 169.95 464.19 164.13 452.99 159.44 441.81 156.07 430.78 153.21 419.78 151.79 408.91 151.96 398.31 152.72 387.7 155.02 377.83 158.68 368.73 162.76 359.6 168.04 351.21 174.33 343.6 180.8 335.92 188.13 328.96 196.11 322.76 204.1 316.4 212.65 310.69 221.63 305.62 230.5 300.27 239.78 295.42 249.36 291.06 258.82 286.24 268.63 281.77 278.72 277.67 288.73 273 299.08 268.63 309.72 264.65 320.34 260.15 331.29 256.11 342.49 252.72" stroke-dasharray="7 2" transform="rotate(48.48, 320, 400)" opacity="0.50"></path><path d="M341.9 263.86C352.29 260.4 362.33 257.92 371.89 256.43 381.41 255.03 390.38 254.8 398.65 255.72 406.79 256.92 414.11 259.34 420.45 262.89 426.54 266.78 431.55 271.76 435.36 277.7 438.88 283.94 441.19 291.04 442.27 298.82 443.19 306.81 443.05 315.38 441.93 324.35 441.02 333.43 439.47 342.83 437.43 352.36 436.1 361.94 434.66 371.6 433.2 381.19 432.82 390.79 432.55 399.84 432.34 408.3 433.01 416.78 433.47 424.69 433.57 432.04 434.11 439.47 433.95 446.43 432.98 452.94 432.04 459.69 430.05 466.15 426.99 472.36 423.75 478.99 419.36 485.54 413.9 492.02 408.24 499.06 401.55 506.11 393.97 513.08 386.25 520.56 377.73 527.87 368.54 534.78 359.3 541.87 349.46 548.27 339.14 553.61 328.81 558.61 318.51 561.96 308.36 563.62 298.2 564.56 288.16 563.72 278.34 561.2 268.51 557.93 258.86 553.11 249.52 546.97 240.16 540.28 231.1 532.49 222.47 523.87 213.87 514.96 205.76 505.42 198.29 495.49 190.97 485.46 184.4 475.17 178.75 464.8 173.42 454.43 169.13 444.02 166.07 433.74 163.47 423.47 162.19 413.31 162.37 403.39 163.09 393.47 165.22 384.22 168.61 375.69 172.38 367.13 177.27 359.25 183.11 352.07 189.14 344.81 195.99 338.2 203.48 332.25 211.01 326.15 219.09 320.61 227.58 315.64 236.02 310.4 244.85 305.6 253.97 301.24 263 296.48 272.35 292.04 281.93 287.96 291.46 283.39 301.26 279.13 311.28 275.26 321.27 270.95 331.51 267.09 341.9 263.86" stroke-dasharray="9 1" transform="rotate(52.52, 320, 400)" opacity="0.64"></path><path d="M340.34 275.01C349.89 271.75 359.04 269.4 367.68 267.96 376.27 266.57 384.3 266.23 391.62 266.92 398.83 267.83 405.25 269.83 410.76 272.85 416.08 276.14 420.42 280.42 423.69 285.58 426.76 290.99 428.78 297.2 429.74 304.06 430.63 311.1 430.61 318.71 429.76 326.74 429.13 334.85 427.93 343.31 426.29 351.95 425.26 360.62 424.07 369.43 422.79 378.25 422.4 387.06 422.03 395.46 421.65 403.37 422.01 411.31 422.14 418.8 421.95 425.85 422.16 432.98 421.78 439.75 420.7 446.16 419.72 452.79 417.85 459.19 415.05 465.4 412.16 471.95 408.27 478.43 403.43 484.81 398.44 491.64 392.53 498.42 385.77 505.07 378.92 512.1 371.28 518.91 362.99 525.28 354.65 531.78 345.7 537.61 336.23 542.47 326.76 547.03 317.25 550.13 307.82 551.74 298.39 552.76 289.04 552.21 279.86 550.17 270.68 547.52 261.67 543.47 252.93 538.21 244.21 532.48 235.77 525.71 227.75 518.14 219.78 510.28 212.29 501.79 205.42 492.87 198.7 483.84 192.69 474.5 187.55 465.03 182.7 455.54 178.82 445.97 176.07 436.47 173.73 426.98 172.59 417.56 172.79 408.33 173.46 399.1 175.42 390.48 178.52 382.51 181.98 374.5 186.47 367.09 191.84 360.31 197.41 353.46 203.76 347.17 210.71 341.46 217.72 335.6 225.28 330.23 233.23 325.36 241.17 320.24 249.49 315.51 258.07 311.19 266.61 306.5 275.42 302.13 284.43 298.11 293.41 293.67 302.61 289.54 311.95 285.81 321.28 281.72 330.78 278.06 340.34 275.01" stroke-dasharray="6 10" transform="rotate(56.56, 320, 400)" opacity="0.70"></path><path d="M337.87 286.15C346.58 283.11 354.84 280.9 362.59 279.52 370.29 278.16 377.42 277.75 383.88 278.25 393.05 279.73 407.17 287.65 411.9 293.92 414.61 298.55 416.41 303.93 417.32 309.93 418.22 316.07 418.34 322.76 417.74 329.87 417.38 337.06 416.51 344.6 415.22 352.37 414.45 360.16 413.49 368.14 412.37 376.2 411.99 384.25 411.54 392 411.02 399.38 411.11 406.77 410.97 413.85 410.52 420.57 410.44 427.37 409.85 433.91 408.66 440.17 407.6 446.62 405.79 452.89 403.19 458.99 400.56 465.38 397.08 471.69 392.76 477.88 388.35 484.41 383.11 490.86 377.1 497.12 371.02 503.66 364.22 509.94 356.77 515.76 349.28 521.67 341.2 526.94 332.6 531.32 323.99 535.46 315.3 538.31 306.63 539.84 297.98 540.91 289.36 540.59 280.88 538.98 272.42 536.87 264.1 533.51 256.03 529.07 248 524.22 240.24 518.41 232.88 511.84 225.59 505.02 218.76 497.56 212.5 489.66 206.41 481.64 200.98 473.27 196.36 464.73 192 456.16 188.53 447.46 186.08 438.78 183.99 430.1 183 421.44 183.21 412.93 183.82 404.41 185.61 396.42 188.43 388.99 191.56 381.53 195.65 374.6 200.54 368.21 205.63 361.75 211.43 355.77 217.81 350.3 224.28 344.68 231.26 339.5 238.62 334.74 246 329.77 253.74 325.14 261.72 320.88 269.69 316.32 277.91 312.05 286.28 308.12 294.65 303.85 303.19 299.89 311.81 296.32 320.44 292.46 329.16 289.02 337.87 286.15" stroke-dasharray="3 6" transform="rotate(60.599999999999994, 320, 400)" opacity="0.85"></path><path d="M334.6 297.3C342.46 294.48 349.86 292.42 356.75 291.11 366.76 289.58 383.61 290.81 390.22 293.58 395.94 297.38 403.34 308.94 405.06 316.44 405.98 321.74 406.25 327.57 405.9 333.81 405.77 340.11 405.19 346.78 404.22 353.71 403.68 360.66 402.92 367.83 401.95 375.14 401.59 382.45 401.08 389.55 400.45 396.39 400.33 403.25 399.96 409.87 399.3 416.24 398.97 422.68 398.18 428.93 396.89 434.97 395.74 441.15 393.96 447.21 391.52 453.11 389.09 459.24 385.93 465.28 382.05 471.19 378.13 477.35 373.48 483.39 368.14 489.2 362.76 495.21 356.71 500.94 350.06 506.21 343.39 511.53 336.15 516.26 328.4 520.18 320.65 523.9 312.79 526.49 304.93 527.93 297.08 529.01 289.24 528.89 281.52 527.64 273.82 525.99 266.24 523.25 258.9 519.55 251.61 515.51 244.57 510.6 237.91 504.98 231.34 499.13 225.19 492.68 219.58 485.77 214.14 478.75 209.29 471.37 205.19 463.77 201.32 456.14 198.25 448.33 196.1 440.49 194.27 432.64 193.41 424.77 193.62 416.99 194.19 409.2 195.79 401.85 198.33 394.97 201.14 388.07 204.81 381.61 209.21 375.61 213.8 369.54 219.05 363.89 224.83 358.66 230.71 353.32 237.07 348.33 243.8 343.73 250.56 338.93 257.65 334.45 264.98 330.3 272.31 325.9 279.87 321.78 287.56 317.99 295.25 313.92 303.08 310.16 310.94 306.79 318.82 303.17 326.74 299.96 334.6 297.3" stroke-dasharray="3 5" transform="rotate(64.64, 320, 400)" opacity="0.96"></path><path d="M330.68 308.44C337.69 305.86 344.26 303.97 350.33 302.75 359.14 301.27 373.87 302.06 379.64 304.33 384.67 307.46 391.31 317.19 392.99 323.6 394.16 330.64 394.15 346.96 393.29 356 392.95 362.13 392.36 368.53 391.54 375.11 391.19 381.69 390.65 388.14 389.95 394.42 389.66 400.72 389.11 406.87 388.28 412.83 387.73 418.86 386.79 424.76 385.41 430.49 384.18 436.34 382.41 442.09 380.1 447.7 377.82 453.48 374.93 459.17 371.44 464.7 367.93 470.42 363.79 475.98 359.06 481.3 354.3 486.76 348.95 491.92 343.06 496.63 337.16 501.37 330.73 505.56 323.83 509.04 316.93 512.35 309.91 514.67 302.88 516.01 295.86 517.07 288.83 517.1 281.9 516.16 275 514.91 268.22 512.71 261.65 509.67 255.13 506.36 248.86 502.27 242.93 497.53 237.09 492.6 231.65 487.1 226.7 481.16 221.89 475.11 217.64 468.7 214.05 462.04 210.67 455.33 208 448.44 206.14 441.45 204.55 434.45 203.82 427.39 204.04 420.34 204.55 413.3 205.98 406.61 208.23 400.29 210.71 393.96 213.97 387.99 217.87 382.4 221.95 376.75 226.63 371.44 231.79 366.5 237.06 361.45 242.77 356.7 248.81 352.29 254.91 347.72 261.32 343.42 267.94 339.43 274.58 335.25 281.42 331.32 288.37 327.71 295.33 323.89 302.4 320.36 309.48 317.2 316.57 313.85 323.67 310.9 330.68 308.44" stroke-dasharray="6 10" transform="rotate(68.68, 320, 400)" opacity="0.63"></path><path d="M326.28 319.58C338.61 314.86 349.28 312.67 357.89 312.9 366.38 313.3 372.75 316.31 376.77 321.58 380.79 327.15 382.76 334.84 382.77 344.15 383.45 353.57 382.87 364.38 381.12 376.1 380.84 387.81 379.6 399.35 377.47 410.32 376.26 421.48 373.48 432.39 369.02 442.71 364.77 453.51 358.4 463.95 350.05 473.41 341.64 483.22 331.22 491.73 319.09 497.89 306.97 503.56 294.41 505.7 282.18 504.55 270.07 502.47 258.42 497.22 247.99 489.5 237.9 481.19 229.3 470.89 222.96 459.45 217.33 447.85 214.27 435.43 214.46 422.86 215.6 410.29 219.87 398.74 226.54 388.48 233.79 378.04 243.11 368.61 253.73 360.39 264.57 351.69 276.51 343.88 288.83 337.29 301.23 330.04 313.95 323.93 326.28 319.58" stroke-dasharray="0 8" transform="rotate(72.72, 320, 400)" opacity="0.93"></path><path d="M321.61 330.73C332.28 326.53 341.47 324.55 348.89 324.66 359.02 326.05 370.13 339.4 371.48 350.51 372.38 358.48 372.12 367.8 370.7 378.08 370.38 388.36 369.06 398.67 366.86 408.62 365.38 418.7 362.55 428.64 358.34 438.05 354.35 447.79 348.63 457.14 341.29 465.51 333.93 474.09 324.88 481.45 314.39 486.75 303.9 491.67 293.05 493.63 282.5 492.82 272.07 491.35 262.06 487.2 253.16 480.91 244.55 474.18 237.26 465.64 231.94 455.96 227.19 446.15 224.65 435.45 224.87 424.43 225.85 413.41 229.5 403.1 235.22 393.78 241.42 384.33 249.44 375.67 258.61 368.02 268 360.02 278.38 352.8 289.09 346.71 299.88 340.14 310.93 334.63 321.61 330.73" stroke-dasharray="4 11" transform="rotate(76.76, 320, 400)" opacity="0.65"></path><path d="M316.86 341.87C325.9 338.22 333.7 336.47 340.02 336.49 348.73 337.5 358.78 348.34 360.38 357.59 361.43 364.23 361.41 372.11 360.29 380.97 359.95 389.82 358.62 398.83 356.45 407.63 354.82 416.52 352.03 425.33 348.13 433.68 344.41 442.22 339.32 450.36 332.94 457.58 326.57 464.91 318.83 471.14 309.94 475.6 301.04 479.79 291.89 481.53 283.03 481 274.26 480.01 265.9 476.81 258.5 471.8 251.35 466.47 245.34 459.55 241 451.55 237.1 443.45 235.04 434.45 235.29 424.99 236.11 415.54 239.16 406.52 243.94 398.25 249.1 389.88 255.82 382.1 263.54 375.17 271.44 367.99 280.21 361.48 289.29 355.99 298.44 350.17 307.81 345.31 316.86 341.87" stroke-dasharray="9 2" transform="rotate(80.80000000000001, 320, 400)" opacity="0.16"></path><path d="M312.25 353.02C322.93 349.18 338.8 349.13 343.78 352.75 347.75 357.78 350.65 373.97 349.87 384.64 349.54 392.06 348.28 399.71 346.23 407.23 344.57 414.82 341.93 422.36 338.4 429.49 335.02 436.73 330.57 443.59 325.14 449.62 319.74 455.69 313.28 460.81 305.94 464.46 298.6 467.92 291.11 469.41 283.91 469.08 276.78 468.47 270.03 466.07 264.1 462.19 258.36 458.09 253.57 452.65 250.16 446.23 247.06 439.74 245.45 432.39 245.71 424.52 246.37 416.65 248.83 409 252.7 401.87 256.86 394.69 262.3 387.92 268.57 381.84 275 375.59 282.16 369.92 289.6 365.13 297.09 360.12 304.8 355.95 312.25 353.02" stroke-dasharray="3 9" transform="rotate(84.84, 320, 400)" opacity="0.75"></path><path d="M307.99 364.16C319.79 359.07 328.63 359.24 333.59 363.7 338.86 368.2 341.05 377 339.45 388.95 339.19 400.9 335.45 413.88 329.2 425.43 323.41 437.18 314.21 447.51 302.56 453.31 290.91 458.65 279.18 457.8 270.01 452.14 261.33 445.97 255.91 435.6 256.12 423.03 257.41 410.46 264.16 398.13 273.78 388.03 283.85 377.57 296.18 368.84 307.99 364.16" stroke-dasharray="5 2" transform="rotate(88.88, 320, 400)" opacity="0.27"></path><path d="M304.26 375.3C316.42 371.5 329.1 381.41 329.04 393.72 328.72 402.74 325.58 412.63 320.55 421.39 315.79 430.23 308.64 437.91 299.96 442.17 291.29 446.17 282.78 445.69 276.28 441.7 270.07 437.45 266.27 429.99 266.54 420.59 267.43 411.2 272.28 401.7 279.25 393.79 286.49 385.69 295.49 378.93 304.26 375.3" stroke-dasharray="6 5" transform="rotate(92.92, 320, 400)" opacity="0.88"></path><path d="M301.23 386.45C312.84 381.18 320.14 386.6 318.62 398.74 318.37 410.87 309.78 425.4 298.26 431.03 286.73 436.2 276.73 429.77 276.96 417.3 278.32 404.83 289.62 391.29 301.23 386.45" stroke-dasharray="2 7" transform="rotate(96.96, 320, 400)" opacity="0.97"></path></g></svg>