<svg xmlns="http://www.w3.org/2000/svg" version="1.1" xmlns:xlink="http://www.w3.org/1999/xlink" xmlns:svgjs="http://svgjs.com/svgjs" width="1440" height="560" preserveAspectRatio="none" viewBox="0 0 1440 560"><g mask="url(&quot;#SvgjsMask1033&quot;)" fill="none"><rect width="1440" height="560" x="0" y="0" fill="rgba(0, 87, 217, 1)"></rect><path d="M958.6040539104929 458.61688730454034L1090.8452496925602 474.85406446191655 1107.0824268499364 342.61286867984927 974.8412310678691 326.37569152247306z" fill="rgba(255, 255, 255, 0.35)" class="triangle-float3"></path><path d="M1111.89 98.56 a95.46 95.46 0 1 0 190.92 0 a95.46 95.46 0 1 0 -190.92 0z" fill="rgba(255, 255, 255, 0.35)" class="triangle-float2"></path><path d="M887.405679503076 451.735996404797L815.4380317305847 348.95554368859507 712.6575790143828 420.92319146108633 784.6252267868741 523.7036441772883z" fill="rgba(255, 255, 255, 0.35)" class="triangle-float2"></path><path d="M1080.809,497.696C1094.768,496.605,1103.654,484.474,1110.748,472.402C1117.978,460.098,1124.649,446.215,1118.68,433.252C1111.827,418.37,1097.186,406.923,1080.809,407.387C1065.008,407.834,1054.183,421.494,1046.479,435.296C1039.025,448.65,1034.127,464.413,1041.499,477.812C1049.086,491.602,1065.118,498.922,1080.809,497.696" fill="rgba(255, 255, 255, 0.35)" class="triangle-float3"></path><path d="M64.301,49.81C85.336,50.583,107.36,42.834,117.434,24.352C127.195,6.444,118.954,-14.329,108.946,-32.1C98.68,-50.328,85.221,-69.892,64.301,-69.991C43.276,-70.091,28.555,-51.212,18.916,-32.527C10.198,-15.627,8.345,4.028,17.525,20.682C27.028,37.923,44.627,49.087,64.301,49.81" fill="rgba(255, 255, 255, 0.35)" class="triangle-float1"></path><path d="M364.18 230.58 a114.98 114.98 0 1 0 229.96 0 a114.98 114.98 0 1 0 -229.96 0z" fill="rgba(255, 255, 255, 0.35)" class="triangle-float1"></path><path d="M143.08 400.93 a158.15 158.15 0 1 0 316.3 0 a158.15 158.15 0 1 0 -316.3 0z" fill="rgba(255, 255, 255, 0.35)" class="triangle-float3"></path><path d="M116.2 186.77 a122.42 122.42 0 1 0 244.84 0 a122.42 122.42 0 1 0 -244.84 0z" fill="rgba(255, 255, 255, 0.35)" class="triangle-float1"></path><path d="M1099.268,254.459C1130.74,255.2,1161.527,240.219,1176.882,212.737C1191.911,185.839,1188.071,152.128,1170.642,126.719C1155.211,104.224,1126.547,99.561,1099.268,99.59C1072.057,99.619,1043.026,104.081,1028.157,126.871C1012.08,151.512,1013.416,183.524,1027.74,209.224C1042.46,235.635,1069.04,253.747,1099.268,254.459" fill="rgba(255, 255, 255, 0.35)" class="triangle-float3"></path><path d="M1474.519174942374 16.13143112004748L1353.4916424826679-89.07619775779797 1248.2840136048226 31.951334701908124 1369.3115460645286 137.15896357975356z" fill="rgba(255, 255, 255, 0.35)" class="triangle-float3"></path><path d="M1011.5538775457578 489.52540797869557L897.4355556091127 487.5334652597922 895.4436128902094 601.6517871964372 1009.5619348268544 603.6437299153406z" fill="rgba(255, 255, 255, 0.35)" class="triangle-float2"></path><path d="M439.01 502.92 a140.76 140.76 0 1 0 281.52 0 a140.76 140.76 0 1 0 -281.52 0z" fill="rgba(255, 255, 255, 0.35)" class="triangle-float1"></path><path d="M14.77 77.52 a180.4 180.4 0 1 0 360.8 0 a180.4 180.4 0 1 0 -360.8 0z" fill="rgba(255, 255, 255, 0.35)" class="triangle-float1"></path></g><defs><mask id="SvgjsMask1033"><rect width="1440" height="560" fill="#ffffff"></rect></mask><style>
            @keyframes float1 {
                0%{transform: translate(0, 0)}
                50%{transform: translate(-10px, 0)}
                100%{transform: translate(0, 0)}
            }

            .triangle-float1 {
                animation: float1 5s infinite;
            }

            @keyframes float2 {
                0%{transform: translate(0, 0)}
                50%{transform: translate(-5px, -5px)}
                100%{transform: translate(0, 0)}
            }

            .triangle-float2 {
                animation: float2 4s infinite;
            }

            @keyframes float3 {
                0%{transform: translate(0, 0)}
                50%{transform: translate(0, -10px)}
                100%{transform: translate(0, 0)}
            }

            .triangle-float3 {
                animation: float3 6s infinite;
            }
        </style></defs></svg>